# xmcd
#
# Track frame offsets: 
#        150
#        25133
#        45179
#        58762
#        82192
#        105118
#        132695
#        163504
#        191822
#        205696
#        221874
#        240109
#        261065
#        289240
#
# Disc length: 4015 seconds
#
# Revision: 0
# Processed by: cddbd v1.5.2PL0 Copyright (c) Steve Scherf et al.
# Submitted via: ExactAudioCopy v0.95a5
#
DISCID=c30fad0e
DTITLE=Les Wilson and The Mighty Houserockers - On the Loose
DYEAR=2000
DGENRE=Blues
TTITLE0=Life's A Bitch
TTITLE1=Gonna Play Some Blues
TTITLE2=Boogie For Elmore
TTITLE3=Fly Like The Wind
TTITLE4=Checkin' Out (Of Your Life)
TTITLE5=Big City Blues (Goin To West Cork)
TTITLE6=Lonely Nights
TTITLE7=Got The Hots For You Tonight
TTITLE8=Lucille, Come Home
TTITLE9=Real Fine Lovin'
TTITLE10=I Wanna Dance
TTITLE11=Give Me A Chance
TTITLE12=On The Loose
TTITLE13=I'm A Rocker, I'm A Roller!
EXTD=
EXTT0=
EXTT1=
EXTT2=
EXTT3=
EXTT4=
EXTT5=
EXTT6=
EXTT7=
EXTT8=
EXTT9=
EXTT10=
EXTT11=
EXTT12=
EXTT13=
PLAYORDER=
